<svg width="100" height="32" viewBox="0 0 100 32" fill="none" xmlns="http://www.w3.org/2000/svg">
<g clip-path="url(#clip0_16_167)">
<path d="M19.6122 3.5027C17.8454 3.5027 17.7148 9.74229 14.9263 13.1616C15.5255 12.7597 15.971 12.176 16.309 11.4557C17.4306 13.6771 19.159 15.3299 22.1703 15.3299C19.2896 15.3299 17.5842 16.8462 16.4627 18.9235C16.2092 18.4762 15.8942 18.0895 15.5178 17.7863C18.168 21.251 17.9376 27.1646 19.6199 27.1646C21.9168 27.1646 21.0104 15.3299 28.4618 15.3299C21.0104 15.3299 21.9168 3.49512 19.6199 3.49512L19.6122 3.5027Z" fill="#0C8A50"/>
<g clip-path="url(#clip1_16_167)">
<path d="M16.3124 11.4582C14.015 6.91589 14.2608 0 11.3103 0C9.65834 0 9.02828 2.81337 8.12929 6.02108C6.92296 10.3132 5.24024 15.3333 0 15.3333C5.50149 15.3333 7.08432 20.8614 8.30602 25.2824C9.25879 21.2633 9.6737 17.0167 13.1237 17.0167C9.6737 17.0167 9.25879 21.2558 8.30602 25.2824C9.12048 28.2247 9.77359 30.6741 11.3103 30.6741C14.33 30.6741 14.0073 23.4625 16.466 18.9353C17.5879 16.8575 19.3013 15.3408 22.175 15.3408C19.163 15.3408 17.4342 13.6877 16.3124 11.4658V11.4582ZM16.0358 11.9663C16.0358 11.9663 16.0281 11.9815 16.0204 11.9891C16.0204 11.9815 16.0281 11.9739 16.0358 11.9663ZM12.8317 13.7484C13.0391 13.7484 13.2389 13.7332 13.431 13.7105C13.2466 13.7332 13.0468 13.7484 12.8317 13.7484ZM13.9842 13.5967C13.9842 13.5967 13.9074 13.6119 13.8767 13.6195C13.9151 13.6119 13.9535 13.6043 13.9842 13.5967ZM13.9689 17.1002C13.9074 17.0926 13.8536 17.0774 13.7921 17.0698C13.8536 17.0774 13.9151 17.0926 13.9689 17.1002ZM14.5605 17.2594C14.5067 17.2367 14.4452 17.2215 14.3915 17.1987C14.4529 17.2139 14.5067 17.2367 14.5605 17.2594ZM15.9973 18.2604C15.9973 18.2604 16.0511 18.3286 16.0742 18.359C16.0511 18.3286 16.0204 18.2907 15.9973 18.2604Z" fill="#054D28"/>
</g>
<path d="M16.3087 11.4557C15.9707 12.1684 15.5252 12.7597 14.926 13.1616C14.3652 13.5331 13.6738 13.7529 12.7981 13.7529C9.53326 13.7529 9.00321 9.87876 8.12747 6.02734C6.92141 10.3185 5.23907 15.3375 0 15.3375C5.50026 15.3375 7.08273 20.8644 8.30416 25.2844C9.25671 21.2662 9.67154 17.0205 13.1207 17.0205C14.1424 17.0205 14.9183 17.3011 15.5175 17.7939C15.8939 18.0971 16.2012 18.4838 16.4624 18.9311C17.5839 16.8538 19.297 15.3375 22.17 15.3375C19.1587 15.3375 17.4303 13.6847 16.3087 11.4633V11.4557Z" fill="#9FE870"/>
<path d="M32.9022 20.7357V17.1162H44.1074V20.7357H32.9022ZM41.5499 7.60153L48.9406 23.8567H44.1508L37.9521 9.5088H39.2525L33.0322 23.8567H28.2424L35.6331 7.60153H41.5499ZM50.4801 7.60153H54.9665V23.8567H50.4801V7.60153ZM66.0998 7.60153C68.0215 7.60153 69.7048 7.94108 71.1497 8.62018C72.6091 9.28484 73.7361 10.2313 74.5308 11.4594C75.34 12.6731 75.7445 14.0964 75.7445 15.7291C75.7445 17.3618 75.34 18.7923 74.5308 20.0205C73.7361 21.2342 72.6091 22.1806 71.1497 22.8597C69.7048 23.5244 68.0215 23.8567 66.0998 23.8567H57.9939V7.60153H66.0998ZM62.4586 21.9711L60.313 19.8688H66.4466C67.4147 19.8688 68.2527 19.7026 68.9607 19.3703C69.6832 19.0235 70.2395 18.5394 70.6296 17.9181C71.0197 17.2968 71.2148 16.5672 71.2148 15.7291C71.2148 14.8766 71.0197 14.1469 70.6296 13.5401C70.2395 12.9188 69.6832 12.442 68.9607 12.1096C68.2527 11.7628 67.4147 11.5895 66.4466 11.5895H60.313L62.4586 9.48713V21.9711ZM80.2073 20.7357V17.1162H91.4125V20.7357H80.2073ZM88.855 7.60153L96.2457 23.8567H91.4558L85.2572 9.5088H86.5576L80.3373 23.8567H75.5474L82.9381 7.60153H88.855Z" fill="#163300"/>
</g>
<defs>
<clipPath id="clip0_16_167">
<rect width="100" height="32" fill="white"/>
</clipPath>
<clipPath id="clip1_16_167">
<rect width="22.175" height="30.6665" fill="white"/>
</clipPath>
</defs>
</svg>
