<svg width="40" height="40" viewBox="0 0 40 40" fill="none" xmlns="http://www.w3.org/2000/svg">
<path d="M23.1966 25.6627V35.5627C23.1966 36.9103 22.1026 38 20.7606 38H4.23872C2.89188 38 1.80273 36.9103 1.80273 35.5627V4.43729C1.80273 3.08973 2.89188 2 4.23872 2H20.7606C22.1026 2 23.1966 3.08973 23.1966 4.43729V13.2232" stroke="#0C8A50" stroke-width="2" stroke-miterlimit="10" stroke-linecap="round"/>
<path d="M1.9292 32.5854H23.0702" stroke="#0C8A50" stroke-width="2" stroke-miterlimit="10" stroke-linecap="round"/>
<path d="M11.2983 4.74365H14.2157" stroke="#0C8A50" stroke-width="2" stroke-miterlimit="10" stroke-linecap="round"/>
<path d="M6.67495 18.5502H18.4659C18.5583 18.5502 18.5972 18.4335 18.5242 18.3751L12.5631 13.7875C12.5291 13.7583 12.4805 13.7583 12.4416 13.7875L6.61174 18.3751C6.53881 18.4335 6.57771 18.5502 6.67009 18.5502H6.67495Z" fill="white" stroke="#0C8A50" stroke-width="2" stroke-miterlimit="10" stroke-linecap="round"/>
<path d="M6.25684 25.9692H18.5583" stroke="#0C8A50" stroke-width="2" stroke-miterlimit="10" stroke-linecap="round"/>
<path d="M7.83203 18.5503V25.9692" stroke="#0C8A50" stroke-width="2" stroke-miterlimit="10" stroke-linecap="round"/>
<path d="M17.0312 18.5503V25.9692" stroke="#0C8A50" stroke-width="2" stroke-miterlimit="10" stroke-linecap="round"/>
<path d="M14 19V25.5" stroke="#0C8A50" stroke-width="2" stroke-miterlimit="10" stroke-linecap="round"/>
<path d="M11.0264 18.5503V25.9692" stroke="#0C8A50" stroke-width="2" stroke-miterlimit="10" stroke-linecap="round"/>
<path d="M1.80273 6.18864H8.04098C8.17226 6.18864 8.29382 6.24212 8.3862 6.32964L9.1982 7.14164C9.29058 7.23402 9.41213 7.28264 9.54341 7.28264H15.7087C15.84 7.28264 15.9616 7.22916 16.0539 7.14164L16.8854 6.31019C16.9778 6.21781 17.0993 6.16919 17.2306 6.16919H23.1966" stroke="#0C8A50" stroke-width="2" stroke-miterlimit="10" stroke-linecap="round"/>
<path d="M33.8499 19.4405C33.8499 23.3859 30.6506 26.5869 26.7073 26.5869C25.4334 26.5869 24.2324 26.2513 23.1968 25.6626V13.2232C24.2324 12.6345 25.4334 12.2988 26.7073 12.2988C28.1514 12.2988 29.4982 12.7318 30.6214 13.4664C32.5663 14.7459 33.8499 16.9448 33.8499 19.4405Z" fill="white" stroke="#0C8A50" stroke-width="2" stroke-miterlimit="10" stroke-linecap="round"/>
<path d="M26.7122 33.6604C27.6977 33.6604 28.4966 32.8611 28.4966 31.875C28.4966 30.889 27.6977 30.0896 26.7122 30.0896C25.7267 30.0896 24.9277 30.889 24.9277 31.875C24.9277 32.8611 25.7267 33.6604 26.7122 33.6604Z" stroke="#0C8A50" stroke-width="2" stroke-miterlimit="10" stroke-linecap="round"/>
<path d="M35.634 30.9216C36.6196 30.9216 37.4185 30.1223 37.4185 29.1362C37.4185 28.1502 36.6196 27.3508 35.634 27.3508C34.6485 27.3508 33.8496 28.1502 33.8496 29.1362C33.8496 30.1223 34.6485 30.9216 35.634 30.9216Z" stroke="#0C8A50" stroke-width="2" stroke-miterlimit="10" stroke-linecap="round"/>
<path d="M36.0183 12.5713C37.0038 12.5713 37.8028 11.7719 37.8028 10.7859C37.8028 9.79984 37.0038 9.00049 36.0183 9.00049C35.0328 9.00049 34.2339 9.79984 34.2339 10.7859C34.2339 11.7719 35.0328 12.5713 36.0183 12.5713Z" stroke="#0C8A50" stroke-width="2" stroke-miterlimit="10" stroke-linecap="round"/>
<path d="M26.7122 9.48219C27.6977 9.48219 28.4966 8.68284 28.4966 7.69679C28.4966 6.71074 27.6977 5.91138 26.7122 5.91138C25.7267 5.91138 24.9277 6.71074 24.9277 7.69679C24.9277 8.68284 25.7267 9.48219 26.7122 9.48219Z" stroke="#0C8A50" stroke-width="2" stroke-miterlimit="10" stroke-linecap="round"/>
<path d="M26.707 30.0896V26.5869" stroke="#0C8A50" stroke-width="2" stroke-miterlimit="10" stroke-linecap="round"/>
<path d="M26.707 12.2992V9.48242" stroke="#0C8A50" stroke-width="2" stroke-miterlimit="10" stroke-linecap="round"/>
<path d="M34.2289 10.7859H32.8284C32.481 10.7859 32.1585 10.9662 31.9766 11.2621L30.6211 13.4664" stroke="#0C8A50" stroke-width="2" stroke-miterlimit="10" stroke-linecap="round"/>
<path d="M33.6749 29.1363H32.3076C31.9399 29.1363 31.6018 28.9344 31.4273 28.6106L30.0039 25.9692" stroke="#0C8A50" stroke-width="2" stroke-miterlimit="10" stroke-linecap="round"/>
</svg>
