<svg width="40" height="40" viewBox="0 0 40 40" fill="none" xmlns="http://www.w3.org/2000/svg">
<path d="M2 35.2053H38" stroke="#0C8A50" stroke-width="2" stroke-miterlimit="10" stroke-linecap="round"/>
<path d="M9.5 29H5.5C5.22386 29 5 29.1343 5 29.3V31.7C5 31.8657 5.22386 32 5.5 32H9.5C9.77614 32 10 31.8657 10 31.7V29.3C10 29.1343 9.77614 29 9.5 29Z" fill="white" stroke="#0C8A50" stroke-width="2" stroke-miterlimit="10" stroke-linecap="round"/>
<path d="M17.5 26H13.5C13.2239 26 13 26.158 13 26.3529V31.6471C13 31.842 13.2239 32 13.5 32H17.5C17.7761 32 18 31.842 18 31.6471V26.3529C18 26.158 17.7761 26 17.5 26Z" fill="white" stroke="#0C8A50" stroke-width="2" stroke-miterlimit="10" stroke-linecap="round"/>
<path d="M25.5 21H21.5C21.2239 21 21 21.1759 21 21.3929V31.6071C21 31.8241 21.2239 32 21.5 32H25.5C25.7761 32 26 31.8241 26 31.6071V21.3929C26 21.1759 25.7761 21 25.5 21Z" fill="white" stroke="#0C8A50" stroke-width="2" stroke-miterlimit="10" stroke-linecap="round"/>
<path d="M33 16H30C29.4477 16 29 16.3582 29 16.8V31.2C29 31.6418 29.4477 32 30 32H33C33.5523 32 34 31.6418 34 31.2V16.8C34 16.3582 33.5523 16 33 16Z" fill="white" stroke="#0C8A50" stroke-width="2" stroke-miterlimit="10" stroke-linecap="round"/>
<path d="M31.3795 4.31836C31.3795 4.31836 25.3638 11.2366 18.2212 16.8871C11.4803 22.2244 3.58643 26.3149 3.58643 26.3149" stroke="#0C8A50" stroke-width="2" stroke-miterlimit="10" stroke-linecap="round"/>
<path d="M26.9604 4H31.5465C31.5883 4 31.6248 4.03652 31.6248 4.07826L31.0352 9.21739" stroke="#0C8A50" stroke-width="2" stroke-miterlimit="10" stroke-linecap="round"/>
<path d="M13.6957 14.3913C16.289 14.3913 18.3913 12.289 18.3913 9.69565C18.3913 7.10231 16.289 5 13.6957 5C11.1023 5 9 7.10231 9 9.69565C9 12.289 11.1023 14.3913 13.6957 14.3913Z" fill="white" stroke="#0C8A50" stroke-width="2" stroke-miterlimit="10" stroke-linecap="round"/>
</svg>
