<svg width="40" height="40" viewBox="0 0 40 40" fill="none" xmlns="http://www.w3.org/2000/svg">
<path d="M19.8053 19.315C22.2796 19.315 24.2855 17.3092 24.2855 14.8349C24.2855 12.3606 22.2796 10.3547 19.8053 10.3547C17.331 10.3547 15.3252 12.3606 15.3252 14.8349C15.3252 17.3092 17.331 19.315 19.8053 19.315Z" fill="white" stroke="#0C8A50" stroke-width="2" stroke-miterlimit="10" stroke-linecap="round"/>
<path d="M13.9985 36.9998L18.0172 21.1415L18.4787 19.3101" stroke="#0C8A50" stroke-width="2" stroke-miterlimit="10" stroke-linecap="round"/>
<path d="M25.6892 36.9999L21.2139 19.2668" stroke="#0C8A50" stroke-width="2" stroke-miterlimit="10" stroke-linecap="round"/>
<path d="M18.0168 21.1416L22.6075 25.8717L15.7383 31.9477L25.4484 36.0337" stroke="#0C8A50" stroke-width="2" stroke-miterlimit="10" stroke-linecap="round"/>
<path d="M13.8734 8.99438C12.3928 10.4942 11.4795 12.5612 11.4795 14.8349C11.4795 17.1086 12.4313 19.2573 13.9647 20.7619" stroke="#0C8A50" stroke-width="2" stroke-miterlimit="10" stroke-linecap="round"/>
<path d="M25.7324 8.99438C27.213 10.4942 28.1263 12.5612 28.1263 14.8349C28.1263 17.1086 27.1745 19.2573 25.6411 20.7619" stroke="#0C8A50" stroke-width="2" stroke-miterlimit="10" stroke-linecap="round"/>
<path d="M10.8163 23.9104C8.51858 21.6078 7.0957 18.4304 7.0957 14.9213C7.0957 11.4122 8.51858 8.23957 10.8163 5.93701" stroke="#0C8A50" stroke-width="2" stroke-miterlimit="10" stroke-linecap="round"/>
<path d="M28.7852 5.94189C31.0877 8.24445 32.5106 11.4123 32.5106 14.9214C32.5106 18.4305 31.0877 21.6031 28.7852 23.9057" stroke="#0C8A50" stroke-width="2" stroke-miterlimit="10" stroke-linecap="round"/>
<path d="M7.87912 3C4.86031 6.03322 3 10.2153 3 14.8348C3 19.4544 4.89877 23.7182 7.97045 26.7562" stroke="#0C8A50" stroke-width="2" stroke-miterlimit="10" stroke-linecap="round"/>
<path d="M31.7266 3C34.7454 6.03322 36.6057 10.2153 36.6057 14.8348C36.6057 19.4544 34.7069 23.7182 31.6353 26.7562" stroke="#0C8A50" stroke-width="2" stroke-miterlimit="10" stroke-linecap="round"/>
</svg>
