<svg width="40" height="40" viewBox="0 0 40 40" fill="none" xmlns="http://www.w3.org/2000/svg">
<path d="M38 19.3588V5.63647C38 4.18059 36.8194 3 35.3635 3H4.63647C3.18059 3 2 4.18059 2 5.63647V26.8341C2 28.29 3.18059 29.4706 4.63647 29.4706H24.6324" stroke="#0C8A50" stroke-width="2" stroke-miterlimit="10" stroke-linecap="round"/>
<path d="M12.064 36.1675H17.3104H27.9463" stroke="#0C8A50" stroke-width="2" stroke-miterlimit="10" stroke-linecap="round"/>
<path d="M17.4111 29.4707V36.1678" stroke="#0C8A50" stroke-width="2" stroke-miterlimit="10" stroke-linecap="round"/>
<path d="M22.5942 29.4707V36.1678" stroke="#0C8A50" stroke-width="2" stroke-miterlimit="10" stroke-linecap="round"/>
<path d="M6.67969 24.0388H20.3491" stroke="#0C8A50" stroke-width="2" stroke-miterlimit="10" stroke-linecap="round"/>
<path d="M25.6914 9.06177H32.5261" stroke="#0C8A50" stroke-width="2" stroke-miterlimit="10" stroke-linecap="round"/>
<path d="M25.6914 13.9324H32.5261" stroke="#0C8A50" stroke-width="2" stroke-miterlimit="10" stroke-linecap="round"/>
<path d="M23.6106 18.0141L27.8142 30.6194C27.8777 30.8047 28.1159 30.8629 28.2536 30.7253L30.6148 28.3641C30.8212 28.1576 31.1548 28.1576 31.3612 28.3641L33.2248 30.2276C33.3995 30.4023 33.6854 30.4023 33.8601 30.2276L36.3959 27.6918C36.5706 27.5171 36.5706 27.2312 36.3959 27.0565L34.5324 25.1929C34.3259 24.9865 34.3259 24.6529 34.5324 24.4465L36.8936 22.0853C37.0312 21.9476 36.9783 21.7094 36.7877 21.6459L24.1824 17.4424C23.833 17.3259 23.4995 17.6594 23.6159 18.0088L23.6106 18.0141Z" fill="white" stroke="#0C8A50" stroke-width="2" stroke-miterlimit="10" stroke-linecap="round"/>
<path d="M9.5016 17.9082L6.69043 15.8171L7.95572 14.1177L9.63396 15.3671L19.4598 9.54883C19.9628 9.25236 20.614 9.41648 20.9104 9.91942C21.2069 10.4224 21.0428 11.0735 20.5398 11.37L9.5016 17.9082Z" fill="#0C8A50"/>
<path d="M9.7427 9.05073L8.83838 10.9656L15.2387 13.9883L16.1431 12.0734L9.7427 9.05073Z" fill="#0C8A50"/>
</svg>
