<svg width="40" height="40" viewBox="0 0 40 40" fill="none" xmlns="http://www.w3.org/2000/svg">
<path d="M37.52 24.29H2.48C2.2149 24.29 2 24.5049 2 24.77V36.81C2 37.0751 2.2149 37.29 2.48 37.29H37.52C37.7851 37.29 38 37.0751 38 36.81V24.77C38 24.5049 37.7851 24.29 37.52 24.29Z" stroke="#0C8A50" stroke-width="2" stroke-miterlimit="10"/>
<path d="M28.98 13.1851H31.5C31.775 13.1851 32 13.4101 32 13.6851V23.6851C32 23.9601 31.775 24.1851 31.5 24.1851H8.5C8.22 24.1851 8 23.9601 8 23.6851V13.6851C8 13.4101 8.22 13.1851 8.5 13.1851H11.02" stroke="#0C8A50" stroke-width="2" stroke-miterlimit="10"/>
<path d="M28.98 13.185H11.02C11.31 8.48 15.22 4.75 20 4.75C24.78 4.75 28.69 8.48 28.98 13.185Z" fill="white" stroke="#0C8A50" stroke-width="2" stroke-miterlimit="10"/>
<path d="M20 2V4.17" stroke="#0C8A50" stroke-width="2" stroke-miterlimit="10" stroke-linecap="round"/>
<path d="M12.9399 17.6001V19.7701" stroke="#0C8A50" stroke-width="2" stroke-miterlimit="10" stroke-linecap="round"/>
<path d="M17.645 17.655V19.825" stroke="#0C8A50" stroke-width="2" stroke-miterlimit="10" stroke-linecap="round"/>
<path d="M22.3496 17.6001V19.7701" stroke="#0C8A50" stroke-width="2" stroke-miterlimit="10" stroke-linecap="round"/>
<path d="M27.0601 17.6001V19.7701" stroke="#0C8A50" stroke-width="2" stroke-miterlimit="10" stroke-linecap="round"/>
<path d="M8 22.9399V37.2899" stroke="#0C8A50" stroke-width="2" stroke-miterlimit="10" stroke-linecap="round"/>
<path d="M32 19.77V36.92" stroke="#0C8A50" stroke-width="2" stroke-miterlimit="10" stroke-linecap="round"/>
<path d="M24.6602 24.1851V37.2901" stroke="#0C8A50" stroke-width="2" stroke-miterlimit="10" stroke-linecap="round"/>
<path d="M15.3398 24.1851V37.2901" stroke="#0C8A50" stroke-width="2" stroke-miterlimit="10" stroke-linecap="round"/>
<path d="M15.3398 32.3301H24.6548" stroke="#0C8A50" stroke-width="2" stroke-miterlimit="10" stroke-linecap="round"/>
<path d="M20 37.2901V32.3301" stroke="#0C8A50" stroke-width="2" stroke-miterlimit="10" stroke-linecap="round"/>
</svg>
