<svg width="40" height="40" viewBox="0 0 40 40" fill="none" xmlns="http://www.w3.org/2000/svg">
<path d="M20.4425 14.6994C23.0133 14.6994 25.1653 16.5761 25.9548 18.959C26.0992 19.3888 26.6721 19.4079 26.8599 18.9972C29.1659 13.8781 33.6962 15.0003 36.1467 18.0994C36.4596 18.4958 37.0902 18.1902 36.9892 17.6983C35.7519 11.648 31.4624 5.92247 25.6852 3.94073C18.8441 1.59129 11.0546 3.82612 6.51475 9.41797C4.76236 11.5764 3.55397 14.1551 3.00996 16.8626C2.91367 17.3402 3.53953 17.6315 3.85246 17.2542C6.29811 14.2888 11.873 14.8045 13.3221 18.6629C13.4762 19.0688 14.0491 19.064 14.2128 18.6629C14.9397 16.9247 16.6151 14.6947 20.4377 14.6947L20.4425 14.6994Z" fill="white" stroke="#0C8A50" stroke-width="2" stroke-miterlimit="10" stroke-linecap="round"/>
<path d="M13.7456 18.4624C13.8034 9.11236 16.5812 3 19.9994 3C23.4175 3 26.2579 9.27949 26.2579 18.7728" stroke="#0C8A50" stroke-width="2" stroke-miterlimit="10"/>
<path d="M36.609 32.7021V36.5224C36.609 36.785 36.3923 36.9999 36.1275 36.9999H25.5458L25.5361 32.7021H36.609Z" stroke="#0C8A50" stroke-width="2" stroke-miterlimit="10"/>
<path d="M25.5357 32.7021V36.9999H14.4725L14.4629 32.7021H25.5357Z" stroke="#0C8A50" stroke-width="2" stroke-miterlimit="10"/>
<path d="M14.4632 32.7021V36.9999H3.88141C3.61663 36.9999 3.39998 36.785 3.39998 36.5224V33.1797C3.39517 32.917 3.607 32.7021 3.8766 32.7021H14.468H14.4632Z" stroke="#0C8A50" stroke-width="2" stroke-miterlimit="10"/>
<path d="M25.5357 28.3472V32.6449H14.4725L14.4629 28.8247C14.4629 28.5621 14.6795 28.3472 14.9443 28.3472H25.5357Z" stroke="#0C8A50" stroke-width="2" stroke-miterlimit="10"/>
<path d="M36.609 28.3472V32.6449H25.5458L25.5361 28.3472H36.609Z" stroke="#0C8A50" stroke-width="2" stroke-miterlimit="10"/>
<path d="M36.609 24.3264V28.1466H25.5458L25.5361 24.3264C25.5361 24.0638 25.7528 23.8489 26.0176 23.8489H36.1275C36.3923 23.8489 36.609 24.0638 36.609 24.3264Z" stroke="#0C8A50" stroke-width="2" stroke-miterlimit="10"/>
</svg>
