<svg width="120" height="38" viewBox="0 0 120 38" fill="none" xmlns="http://www.w3.org/2000/svg">
<g clip-path="url(#clip0_36_323)">
<path d="M23.5343 4.15939C21.4141 4.15939 21.2574 11.5689 17.9111 15.6293C18.6302 15.1521 19.1648 14.4589 19.5704 13.6036C20.9163 16.2415 22.9904 18.2042 26.604 18.2042C23.1471 18.2042 21.1007 20.0048 19.7548 22.4716C19.4506 21.9404 19.0726 21.4813 18.6209 21.1211C21.8013 25.2355 21.5247 32.2579 23.5435 32.2579C26.2998 32.2579 25.212 18.2042 34.1538 18.2042C25.212 18.2042 26.2998 4.15039 23.5435 4.15039L23.5343 4.15939Z" fill="#0C8A50"/>
<g clip-path="url(#clip1_36_323)">
<path d="M19.5748 13.6067C16.818 8.21263 17.113 0 13.5724 0C11.59 0 10.8339 3.34088 9.75515 7.15003C8.30755 12.2469 6.28829 18.2083 0 18.2083C6.60178 18.2083 8.50118 24.773 9.96722 30.0229C11.1105 25.2502 11.6084 20.2074 15.7484 20.2074C11.6084 20.2074 11.1105 25.2412 9.96722 30.0229C10.9446 33.5169 11.7283 36.4255 13.5724 36.4255C17.196 36.4255 16.8087 27.8617 19.7593 22.4857C21.1054 20.0183 23.1616 18.2173 26.61 18.2173C22.9956 18.2173 20.921 16.2542 19.5748 13.6157V13.6067ZM19.2429 14.21C19.2429 14.21 19.2337 14.228 19.2245 14.237C19.2245 14.228 19.2337 14.219 19.2429 14.21ZM15.398 16.3262C15.647 16.3262 15.8867 16.3082 16.1172 16.2812C15.8959 16.3082 15.6562 16.3262 15.398 16.3262ZM16.7811 16.1461C16.7811 16.1461 16.6889 16.1641 16.652 16.1731C16.6981 16.1641 16.7442 16.1551 16.7811 16.1461ZM16.7626 20.3064C16.6889 20.2974 16.6243 20.2794 16.5506 20.2704C16.6243 20.2794 16.6981 20.2974 16.7626 20.3064ZM17.4726 20.4955C17.4081 20.4685 17.3343 20.4505 17.2698 20.4235C17.3435 20.4415 17.4081 20.4685 17.4726 20.4955ZM19.1968 21.6842C19.1968 21.6842 19.2614 21.7653 19.289 21.8013C19.2614 21.7653 19.2245 21.7202 19.1968 21.6842Z" fill="white"/>
</g>
<path d="M19.5705 13.6036C19.1649 14.4499 18.6302 15.1521 17.9112 15.6293C17.2382 16.0704 16.4086 16.3315 15.3577 16.3315C11.4399 16.3315 10.8039 11.7309 9.75297 7.15738C8.30569 12.2531 6.28688 18.2131 0 18.2131C6.60031 18.2131 8.49928 24.7764 9.96499 30.0251C11.1081 25.2535 11.6058 20.2118 15.7449 20.2118C16.9709 20.2118 17.9019 20.5449 18.621 21.1301C19.0727 21.4902 19.4414 21.9494 19.7548 22.4806C21.1007 20.0137 23.1564 18.2131 26.604 18.2131C22.9905 18.2131 20.9163 16.2505 19.5705 13.6126V13.6036Z" fill="#9FE870"/>
<path d="M38.5462 21.0839V17.4645H49.7515V21.0839H38.5462ZM47.194 7.94976L54.5847 24.2049H49.7948L43.5962 9.85703H44.8966L38.6763 24.2049H33.8864L41.2771 7.94976H47.194ZM56.1242 7.94976H60.6106V24.2049H56.1242V7.94976ZM71.7438 7.94976C73.6656 7.94976 75.3489 8.28931 76.7938 8.96842C78.2531 9.63308 79.3802 10.5795 80.1749 11.8077C80.984 13.0214 81.3886 14.4446 81.3886 16.0773C81.3886 17.7101 80.984 19.1405 80.1749 20.3687C79.3802 21.5824 78.2531 22.5288 76.7938 23.2079C75.3489 23.8726 73.6656 24.2049 71.7438 24.2049H63.6379V7.94976H71.7438ZM68.1027 22.3193L65.957 20.217H72.0906C73.0587 20.217 73.8968 20.0508 74.6048 19.7185C75.3272 19.3717 75.8835 18.8877 76.2736 18.2664C76.6637 17.6451 76.8588 16.9154 76.8588 16.0773C76.8588 15.2249 76.6637 14.4952 76.2736 13.8883C75.8835 13.267 75.3272 12.7902 74.6048 12.4579C73.8968 12.1111 73.0587 11.9377 72.0906 11.9377H65.957L68.1027 9.83536V22.3193ZM85.8513 21.0839V17.4645H97.0565V21.0839H85.8513ZM94.499 7.94976L101.89 24.2049H97.0999L90.9012 9.85703H92.2016L85.9813 24.2049H81.1915L88.5822 7.94976H94.499Z" fill="white"/>
</g>
<defs>
<clipPath id="clip0_36_323">
<rect width="120" height="38" fill="white"/>
</clipPath>
<clipPath id="clip1_36_323">
<rect width="26.61" height="36.4165" fill="white"/>
</clipPath>
</defs>
</svg>
