<svg width="120" height="38" viewBox="0 0 120 38" fill="none" xmlns="http://www.w3.org/2000/svg">
<g clip-path="url(#clip0_2016_178)">
<path d="M23.5345 4.15939C21.4143 4.15939 21.2576 11.5689 17.9114 15.6293C18.6304 15.1521 19.1651 14.4589 19.5707 13.6036C20.9165 16.2415 22.9907 18.2042 26.6042 18.2042C23.1474 18.2042 21.1009 20.0048 19.755 22.4716C19.4508 21.9404 19.0729 21.4813 18.6212 21.1211C21.8015 25.2355 21.525 32.2579 23.5438 32.2579C26.3 32.2579 25.2123 18.2042 34.154 18.2042C25.2123 18.2042 26.3 4.15039 23.5438 4.15039L23.5345 4.15939Z" fill="#0C8A50"/>
<g clip-path="url(#clip1_2016_178)">
<path d="M19.5748 13.6067C16.818 8.21263 17.113 0 13.5724 0C11.59 0 10.8339 3.34088 9.75515 7.15003C8.30755 12.2469 6.28829 18.2083 0 18.2083C6.60178 18.2083 8.50118 24.773 9.96722 30.0229C11.1105 25.2502 11.6084 20.2074 15.7484 20.2074C11.6084 20.2074 11.1105 25.2412 9.96722 30.0229C10.9446 33.5169 11.7283 36.4255 13.5724 36.4255C17.196 36.4255 16.8087 27.8617 19.7593 22.4857C21.1054 20.0183 23.1616 18.2173 26.61 18.2173C22.9956 18.2173 20.921 16.2542 19.5748 13.6157V13.6067ZM19.2429 14.21C19.2429 14.21 19.2337 14.228 19.2245 14.237C19.2245 14.228 19.2337 14.219 19.2429 14.21ZM15.398 16.3262C15.647 16.3262 15.8867 16.3082 16.1172 16.2812C15.8959 16.3082 15.6562 16.3262 15.398 16.3262ZM16.7811 16.1461C16.7811 16.1461 16.6889 16.1641 16.652 16.1731C16.6981 16.1641 16.7442 16.1551 16.7811 16.1461ZM16.7626 20.3064C16.6889 20.2974 16.6243 20.2794 16.5506 20.2704C16.6243 20.2794 16.6981 20.2974 16.7626 20.3064ZM17.4726 20.4955C17.4081 20.4685 17.3343 20.4505 17.2698 20.4235C17.3435 20.4415 17.4081 20.4685 17.4726 20.4955ZM19.1968 21.6842C19.1968 21.6842 19.2614 21.7653 19.289 21.8013C19.2614 21.7653 19.2245 21.7202 19.1968 21.6842Z" fill="#054D28"/>
</g>
<path d="M19.5705 13.6035C19.1649 14.4498 18.6302 15.1521 17.9112 15.6292C17.2382 16.0704 16.4086 16.3315 15.3577 16.3315C11.4399 16.3315 10.8039 11.7309 9.75297 7.15735C8.30569 12.2531 6.28688 18.2131 0 18.2131C6.60031 18.2131 8.49928 24.7763 9.96499 30.0251C11.1081 25.2535 11.6058 20.2118 15.7449 20.2118C16.9709 20.2118 17.9019 20.5449 18.621 21.1301C19.0727 21.4902 19.4414 21.9494 19.7548 22.4805C21.1007 20.0137 23.1564 18.2131 26.604 18.2131C22.9905 18.2131 20.9163 16.2504 19.5705 13.6125V13.6035Z" fill="#9FE870"/>
<path d="M38.5465 21.084V17.4645H49.7517V21.084H38.5465ZM47.1942 7.94979L54.5849 24.205H49.795L43.5964 9.85706H44.8968L38.6765 24.205H33.8867L41.2773 7.94979H47.1942ZM56.1244 7.94979H60.6108V24.205H56.1244V7.94979ZM71.7441 7.94979C73.6658 7.94979 75.3491 8.28935 76.794 8.96845C78.2534 9.63311 79.3804 10.5795 80.1751 11.8077C80.9842 13.0214 81.3888 14.4446 81.3888 16.0774C81.3888 17.7101 80.9842 19.1406 80.1751 20.3687C79.3804 21.5825 78.2534 22.5289 76.794 23.208C75.3491 23.8726 73.6658 24.205 71.7441 24.205H63.6382V7.94979H71.7441ZM68.1029 22.3194L65.9573 20.217H72.0909C73.059 20.217 73.897 20.0509 74.605 19.7185C75.3274 19.3718 75.8837 18.8877 76.2739 18.2664C76.664 17.6451 76.859 16.9154 76.859 16.0774C76.859 15.2249 76.664 14.4952 76.2739 13.8883C75.8837 13.267 75.3274 12.7902 74.605 12.4579C73.897 12.1111 73.059 11.9377 72.0909 11.9377H65.9573L68.1029 9.83539V22.3194ZM85.8515 21.084V17.4645H97.0568V21.084H85.8515ZM94.4993 7.94979L101.89 24.205H97.1001L90.9015 9.85706H92.2019L85.9816 24.205H81.1917L88.5824 7.94979H94.4993Z" fill="#163300"/>
</g>
<defs>
<clipPath id="clip0_2016_178">
<rect width="120" height="38" fill="white"/>
</clipPath>
<clipPath id="clip1_2016_178">
<rect width="26.61" height="36.4165" fill="white"/>
</clipPath>
</defs>
</svg>
