<svg width="40" height="40" viewBox="0 0 40 40" fill="none" xmlns="http://www.w3.org/2000/svg">
<path d="M18.7275 30.247L21.3728 37.927C21.3884 37.9687 21.4301 38 21.4771 38H35.5432C36.7484 38 37.7293 37.0244 37.7293 35.814V11.9392C37.7293 10.734 36.7536 9.75308 35.5432 9.75308H21.2632" stroke="#0C8A50" stroke-width="2" stroke-miterlimit="10" stroke-linecap="round"/>
<path d="M27.7583 30.247H4.18609C2.98087 30.247 2 29.2713 2 28.0609V4.18609C2 2.98087 2.97565 2 4.18609 2H18.5287C18.6226 2 18.7061 2.06261 18.7374 2.1513L27.967 29.96C28.0139 30.1009 27.9096 30.247 27.7583 30.247Z" fill="white" stroke="#0C8A50" stroke-width="2" stroke-miterlimit="10" stroke-linecap="round"/>
<path d="M28.061 30.247L21.3984 38" stroke="#0C8A50" stroke-width="2" stroke-miterlimit="10" stroke-linecap="round"/>
<path d="M23.7568 17.2765H34.2281" stroke="#0C8A50" stroke-width="2" stroke-miterlimit="10" stroke-linecap="round"/>
<path d="M25.3486 22.0661H34.2286" stroke="#0C8A50" stroke-width="2" stroke-miterlimit="10" stroke-linecap="round"/>
<path d="M26.9443 26.8766H34.64" stroke="#0C8A50" stroke-width="2" stroke-miterlimit="10" stroke-linecap="round"/>
<path d="M18.8002 18.2157C18.1793 21.2522 15.4924 23.5322 12.2732 23.5322C9.05409 23.5322 6.58627 21.4296 5.83496 18.5809" stroke="#0C8A50" stroke-width="2" stroke-miterlimit="10" stroke-linecap="round"/>
<path d="M12.2734 26.8243V23.5322" stroke="#0C8A50" stroke-width="2" stroke-miterlimit="10" stroke-linecap="round"/>
<path d="M16.0555 11.047C16.0555 8.95789 14.3619 7.26436 12.2728 7.26436C10.1838 7.26436 8.49023 8.95789 8.49023 11.047V16.0609C8.49023 18.15 10.1838 19.8435 12.2728 19.8435C14.3619 19.8435 16.0555 18.15 16.0555 16.0609V11.047Z" fill="#9FE870" stroke="#0C8A50" stroke-width="2" stroke-miterlimit="10" stroke-linecap="round"/>
</svg>
