<svg width="40" height="40" viewBox="0 0 40 40" fill="none" xmlns="http://www.w3.org/2000/svg">
<g clip-path="url(#clip0_200_1560)">
<path d="M4.85938 16.5675V8.79979C4.85938 7.8037 5.66736 7 6.65916 7H36.1996C37.1957 7 37.9994 7.80798 37.9994 8.79979V30.4143C37.9994 31.4104 37.1914 32.2141 36.1996 32.2141H16.0984" stroke="#0C8A50" stroke-width="2" stroke-miterlimit="10" stroke-linecap="round"/>
<path d="M4.85938 23.2665V19.8123" stroke="#0C8A50" stroke-width="2" stroke-miterlimit="10" stroke-linecap="round"/>
<path d="M9.3958 36.4976C13.4804 36.4976 16.7916 33.1864 16.7916 29.1019C16.7916 25.0173 13.4804 21.7061 9.3958 21.7061C5.31121 21.7061 2 25.0173 2 29.1019C2 33.1864 5.31121 36.4976 9.3958 36.4976Z" fill="#9FE870" stroke="#0C8A50" stroke-width="2" stroke-miterlimit="10" stroke-linecap="round"/>
<path d="M2.83398 32.5091L9.39615 29.1019" stroke="#0C8A50" stroke-width="2" stroke-miterlimit="10" stroke-linecap="round"/>
<path d="M9.39551 21.7103V29.1831" stroke="#0C8A50" stroke-width="2" stroke-miterlimit="10" stroke-linecap="round"/>
<path d="M16.7913 29.1019H9.39551" stroke="#0C8A50" stroke-width="2" stroke-miterlimit="10" stroke-linecap="round"/>
<path d="M4.86047 19.8122C3.96699 19.8122 3.24023 19.0855 3.24023 18.192C3.24023 17.2985 3.96699 16.5718 4.86047 16.5718C5.75395 16.5718 6.4807 17.2985 6.4807 18.192C6.4807 19.0855 5.75395 19.8122 4.86047 19.8122Z" fill="#9FE870" stroke="#0C8A50" stroke-width="2" stroke-miterlimit="10" stroke-linecap="round"/>
<path d="M11.0157 14.5625C11.9106 14.5625 12.636 13.8371 12.636 12.9423C12.636 12.0474 11.9106 11.322 11.0157 11.322C10.1209 11.322 9.39551 12.0474 9.39551 12.9423C9.39551 13.8371 10.1209 14.5625 11.0157 14.5625Z" fill="#9FE870" stroke="#0C8A50" stroke-width="2" stroke-miterlimit="10" stroke-linecap="round"/>
<path d="M16.2062 19.5215C17.101 19.5215 17.8264 18.7961 17.8264 17.9013C17.8264 17.0065 17.101 16.2811 16.2062 16.2811C15.3113 16.2811 14.5859 17.0065 14.5859 17.9013C14.5859 18.7961 15.3113 19.5215 16.2062 19.5215Z" fill="#9FE870" stroke="#0C8A50" stroke-width="2" stroke-miterlimit="10" stroke-linecap="round"/>
<path d="M23.0548 13.652C23.9496 13.652 24.675 12.9266 24.675 12.0317C24.675 11.1369 23.9496 10.4115 23.0548 10.4115C22.16 10.4115 21.4346 11.1369 21.4346 12.0317C21.4346 12.9266 22.16 13.652 23.0548 13.652Z" fill="#9FE870" stroke="#0C8A50" stroke-width="2" stroke-miterlimit="10" stroke-linecap="round"/>
<path d="M5.99219 17.0292L9.41221 14.1564" stroke="#0C8A50" stroke-width="2" stroke-miterlimit="10" stroke-linecap="round"/>
<path d="M17.6719 16.5675L21.7674 13.1304" stroke="#0C8A50" stroke-width="2" stroke-miterlimit="10" stroke-linecap="round"/>
<path d="M12.3711 14.2847L15.1584 16.6231" stroke="#0C8A50" stroke-width="2" stroke-miterlimit="10" stroke-linecap="round"/>
<mask id="path-14-inside-1_200_1560" fill="white">
<path d="M27.8809 18C28.4331 18 28.8809 17.5523 28.8809 17C28.8809 16.4477 28.4331 16 27.8809 16C27.3286 16 26.8809 16.4477 26.8809 17C26.8809 17.5523 27.3286 18 27.8809 18Z"/>
</mask>
<path d="M27.8809 18C28.4331 18 28.8809 17.5523 28.8809 17C28.8809 16.4477 28.4331 16 27.8809 16C27.3286 16 26.8809 16.4477 26.8809 17C26.8809 17.5523 27.3286 18 27.8809 18Z" fill="#0C8A50"/>
<path d="M28.8809 17H26.8809C26.8809 16.4477 27.3286 16 27.8809 16V18V20C29.5377 20 30.8809 18.6569 30.8809 17H28.8809ZM27.8809 18V16C28.4331 16 28.8809 16.4477 28.8809 17H26.8809H24.8809C24.8809 18.6569 26.224 20 27.8809 20V18ZM26.8809 17H28.8809C28.8809 17.5523 28.4331 18 27.8809 18V16V14C26.224 14 24.8809 15.3431 24.8809 17H26.8809ZM27.8809 16V18C27.3286 18 26.8809 17.5523 26.8809 17H28.8809H30.8809C30.8809 15.3431 29.5377 14 27.8809 14V16Z" fill="#0C8A50" mask="url(#path-14-inside-1_200_1560)"/>
<path d="M30.8809 17H34.8809" stroke="#0C8A50" stroke-width="2" stroke-miterlimit="10" stroke-linecap="round"/>
<mask id="path-17-inside-2_200_1560" fill="white">
<path d="M27.8809 15C28.4331 15 28.8809 14.5523 28.8809 14C28.8809 13.4477 28.4331 13 27.8809 13C27.3286 13 26.8809 13.4477 26.8809 14C26.8809 14.5523 27.3286 15 27.8809 15Z"/>
</mask>
<path d="M27.8809 15C28.4331 15 28.8809 14.5523 28.8809 14C28.8809 13.4477 28.4331 13 27.8809 13C27.3286 13 26.8809 13.4477 26.8809 14C26.8809 14.5523 27.3286 15 27.8809 15Z" fill="#0C8A50"/>
<path d="M28.8809 14H26.8809C26.8809 13.4477 27.3286 13 27.8809 13V15V17C29.5377 17 30.8809 15.6569 30.8809 14H28.8809ZM27.8809 15V13C28.4331 13 28.8809 13.4477 28.8809 14H26.8809H24.8809C24.8809 15.6569 26.224 17 27.8809 17V15ZM26.8809 14H28.8809C28.8809 14.5523 28.4331 15 27.8809 15V13V11C26.224 11 24.8809 12.3431 24.8809 14H26.8809ZM27.8809 13V15C27.3286 15 26.8809 14.5523 26.8809 14H28.8809H30.8809C30.8809 12.3431 29.5377 11 27.8809 11V13Z" fill="#0C8A50" mask="url(#path-17-inside-2_200_1560)"/>
<path d="M30.8809 14H34.8809" stroke="#0C8A50" stroke-width="2" stroke-miterlimit="10" stroke-linecap="round"/>
<mask id="path-20-inside-3_200_1560" fill="white">
<path d="M27.8809 12C28.4331 12 28.8809 11.5523 28.8809 11C28.8809 10.4477 28.4331 10 27.8809 10C27.3286 10 26.8809 10.4477 26.8809 11C26.8809 11.5523 27.3286 12 27.8809 12Z"/>
</mask>
<path d="M27.8809 12C28.4331 12 28.8809 11.5523 28.8809 11C28.8809 10.4477 28.4331 10 27.8809 10C27.3286 10 26.8809 10.4477 26.8809 11C26.8809 11.5523 27.3286 12 27.8809 12Z" fill="#0C8A50"/>
<path d="M28.8809 11H26.8809C26.8809 10.4477 27.3286 10 27.8809 10V12V14C29.5377 14 30.8809 12.6569 30.8809 11H28.8809ZM27.8809 12V10C28.4331 10 28.8809 10.4477 28.8809 11H26.8809H24.8809C24.8809 12.6569 26.224 14 27.8809 14V12ZM26.8809 11H28.8809C28.8809 11.5523 28.4331 12 27.8809 12V10V8C26.224 8 24.8809 9.34315 24.8809 11H26.8809ZM27.8809 10V12C27.3286 12 26.8809 11.5523 26.8809 11H28.8809H30.8809C30.8809 9.34315 29.5377 8 27.8809 8V10Z" fill="#0C8A50" mask="url(#path-20-inside-3_200_1560)"/>
<path d="M30.8809 11H34.8809" stroke="#0C8A50" stroke-width="2" stroke-miterlimit="10" stroke-linecap="round"/>
<path d="M35 29H22.7214C21.7687 29 21 28.2007 21 27.2195V19" stroke="#0C8A50" stroke-width="2" stroke-miterlimit="10" stroke-linecap="round"/>
<path d="M26.5729 24H24.4322H24.4271C24.1932 24 24 24.08 24 24.1815V28H27V24.1815C27 24.0821 26.8119 24 26.5729 24Z" fill="#9FE870" stroke="#0C8A50" stroke-width="2" stroke-miterlimit="10" stroke-linecap="round"/>
<path d="M32.5729 22H30.4322H30.4271C30.1932 22 30 22.0892 30 22.2026V28H33V22.2026C33 22.0916 32.8119 22 32.5729 22Z" fill="#9FE870" stroke="#0C8A50" stroke-width="2" stroke-miterlimit="10" stroke-linecap="round"/>
</g>
<defs>
<clipPath id="clip0_200_1560">
<rect width="40" height="40" fill="white"/>
</clipPath>
</defs>
</svg>
