<svg width="40" height="40" viewBox="0 0 40 40" fill="none" xmlns="http://www.w3.org/2000/svg">
<path d="M6.07227 11.87C8.49826 6.63358 13.7997 3 19.9513 3C26.103 3 31.4044 6.63358 33.8304 11.87" stroke="#0C8A50" stroke-width="2" stroke-miterlimit="10" stroke-linecap="round"/>
<path d="M24.4141 34.9242C28.1252 33.7915 31.2392 31.2869 33.1582 28" stroke="#0C8A50" stroke-width="2" stroke-miterlimit="10" stroke-linecap="round"/>
<path d="M11 17.5V21.5" stroke="#0C8A50" stroke-width="2" stroke-miterlimit="10" stroke-linecap="round"/>
<path d="M14 14.5V24.5" stroke="#0C8A50" stroke-width="2" stroke-miterlimit="10" stroke-linecap="round"/>
<path d="M17 16V23" stroke="#0C8A50" stroke-width="2" stroke-miterlimit="10" stroke-linecap="round"/>
<path d="M20 12V27" stroke="#0C8A50" stroke-width="2" stroke-miterlimit="10" stroke-linecap="round"/>
<path d="M23 16V23" stroke="#0C8A50" stroke-width="2" stroke-miterlimit="10" stroke-linecap="round"/>
<path d="M26 14.5V24.5" stroke="#0C8A50" stroke-width="2" stroke-miterlimit="10" stroke-linecap="round"/>
<path d="M29 17.5V21.5" stroke="#0C8A50" stroke-width="2" stroke-miterlimit="10" stroke-linecap="round"/>
<path d="M21.5549 33.7491H18.5008C17.5856 33.7491 16.8438 34.491 16.8438 35.4061C16.8438 36.3213 17.5856 37.0632 18.5008 37.0632H21.5549C22.4701 37.0632 23.212 36.3213 23.212 35.4061C23.212 34.491 22.4701 33.7491 21.5549 33.7491Z" fill="#0C8A50"/>
<path d="M5.5 15H6.5V25H5.5C4.39543 25 3.5 24.1046 3.5 23V17C3.5 15.8954 4.39543 15 5.5 15Z" fill="#9FE870" stroke="#0C8A50" stroke-width="2"/>
<path d="M35 15H34V25H35C36.1046 25 37 24.1046 37 23V17C37 15.8954 36.1046 15 35 15Z" fill="#9FE870" stroke="#0C8A50" stroke-width="2"/>
</svg>
